<svg xmlns="http://www.w3.org/2000/svg"  viewBox="0 0 50 50" width="50px" height="50px"><path d="M 17 0.75585938 L 16.5 1.0449219 L 13.5 2.7734375 L 13 3.0625 L 13 3.640625 L 13 12.302734 L 10.5 13.742188 L 9.6328125 14.242188 L 10.132812 15.109375 L 15.132812 23.769531 L 15.632812 24.634766 L 16.498047 24.134766 L 24.498047 19.515625 L 26 18.648438 L 24.5 17.783203 L 22 16.341797 L 22 14.03125 L 29 18.068359 L 29 20.960938 L 29 21.537109 L 29.5 21.826172 L 33.5 24.136719 L 34 24.425781 L 34.5 24.136719 L 37.5 22.40625 L 38 22.117188 L 38 21.539062 L 38 13.449219 L 38 12.871094 L 37.5 12.582031 L 17.5 1.0429688 L 17 0.75585938 z M 17 2.1992188 L 36.501953 13.451172 L 34 14.896484 L 14.5 3.640625 L 17 2.1992188 z M 14.25 4.0742188 L 33.75 15.330078 L 33.75 22.835938 L 30.25 20.816406 L 30.25 17.490234 A 0.250025 0.250025 0 0 0 30.125 17.273438 L 21.125 12.083984 L 21.103516 12.072266 L 18.125 10.349609 A 0.250025 0.250025 0 0 0 17.980469 10.316406 A 0.250025 0.250025 0 0 0 17.75 10.566406 L 17.75 18.648438 A 0.250025 0.250025 0 0 0 17.875 18.865234 L 20.501953 20.380859 L 16.091797 22.927734 L 11.683594 15.292969 L 13.875 16.556641 A 0.250025 0.250025 0 0 0 14.25 16.339844 L 14.25 12.890625 A 0.250025 0.250025 0 0 0 14.25 12.880859 L 14.25 4.0742188 z M 18.25 11 L 20.75 12.443359 L 20.75 16.775391 L 18.25 18.214844 L 18.25 11 z M 13.75 13.3125 L 13.75 15.90625 L 11.5 14.609375 L 13.75 13.3125 z M 36.75 13.882812 L 36.75 21.396484 L 34.25 22.835938 L 34.25 15.330078 L 36.75 13.882812 z M 21 17.208984 L 23.5 18.650391 L 21.001953 20.09375 L 18.5 18.648438 L 21 17.208984 z M 34.365234 25.363281 L 33.5 25.863281 L 25.5 30.484375 L 23.998047 31.351562 L 25.5 32.216797 L 28 33.658203 L 28 35.96875 L 21 31.931641 L 21 29.039062 L 21 28.462891 L 20.5 28.173828 L 16.5 25.863281 L 16 25.574219 L 15.5 25.863281 L 12.5 27.59375 L 12 27.882812 L 12 28.460938 L 12 36.550781 L 12 37.128906 L 12.5 37.417969 L 32.5 48.957031 L 33 49.244141 L 33.5 48.957031 L 36.5 47.226562 L 37 46.9375 L 37 46.359375 L 37 37.697266 L 39.5 36.257812 L 40.367188 35.757812 L 39.867188 34.890625 L 34.867188 26.230469 L 34.365234 25.363281 z M 16 27.019531 L 19.501953 29.041016 L 17 30.484375 L 13.498047 28.460938 L 16 27.019531 z M 33.908203 27.072266 L 38.658203 35.298828 L 36.091797 36.779297 L 31.341797 28.554688 L 33.908203 27.072266 z M 30.908203 28.804688 L 35.318359 36.439453 L 33.125 35.175781 A 0.250025 0.250025 0 0 0 32.75 35.392578 L 32.75 47.65625 L 13.25 36.40625 L 13.25 28.892578 L 16.75 30.917969 L 16.75 34.238281 A 0.250025 0.250025 0 0 0 16.875 34.455078 L 28.875 41.382812 A 0.250025 0.250025 0 0 0 29.25 41.166016 L 29.25 37.699219 L 29.25 33.080078 A 0.250025 0.250025 0 0 0 29.125 32.863281 L 26.5 31.349609 L 30.908203 28.804688 z M 19.75 29.472656 L 19.75 32.365234 L 17.25 33.804688 L 17.25 30.917969 L 19.75 29.472656 z M 20 32.798828 L 28.75 37.84375 L 28.75 40.732422 L 17.5 34.238281 L 20 32.798828 z M 33.25 35.824219 L 35.75 37.263672 L 35.75 46.214844 L 33.25 47.65625 L 33.25 35.824219 z"/></svg>